Coordinates
version=1
nRows=60
nColumns=12
inDegrees=yes

Units are S.I. units (second, meters, Newtons, ...)
Angles are in degrees

endheader
time	SC_y	SC_z	SC_x	AC_y	AC_z	AC_x	GH_y	GH_z	GH_yy	EL_x	PS_y
       0.0              -30.46          32.74          32.13          63.15        -0.1512         -1.117         -130.9          47.47          42.44          86.74          157.5
   0.02606              -30.47          32.74          32.13          63.14        -0.1526         -1.117         -130.9          47.46          42.45          86.74          157.5
   0.05212              -30.47          32.74          32.14          63.14         -0.154         -1.116         -130.9          47.46          42.46          86.75          157.5
   0.07818              -30.47          32.73          32.14          63.13        -0.1555         -1.116         -130.8          47.46          42.47          86.75          157.4
    0.1042              -30.48          32.73          32.15          63.13        -0.1572         -1.116         -130.8          47.45          42.48          86.75          157.4
    0.1303              -30.48          32.73          32.15          63.12        -0.1589         -1.116         -130.8          47.45           42.5          86.76          157.4
    0.1564              -30.48          32.73          32.15          63.12        -0.1607         -1.115         -130.8          47.44          42.51          86.76          157.4
    0.1824              -30.49          32.73          32.16          63.11        -0.1627         -1.115         -130.8          47.44          42.53          86.77          157.4
    0.2085              -30.49          32.73          32.17          63.11        -0.1648         -1.115         -130.7          47.43          42.54          86.77          157.4
    0.2345               -30.5          32.73          32.17           63.1        -0.1671         -1.114         -130.7          47.43          42.56          86.78          157.3
    0.2606               -30.5          32.73          32.18          63.09        -0.1695         -1.114         -130.7          47.42          42.58          86.79          157.3
    0.2867              -30.51          32.72          32.18          63.08        -0.1722         -1.114         -130.7          47.41           42.6          86.79          157.3
    0.3127              -30.51          32.72          32.19          63.08         -0.175         -1.113         -130.6           47.4          42.62           86.8          157.3
    0.3388              -30.52          32.72           32.2          63.07        -0.1781         -1.113         -130.6           47.4          42.64          86.81          157.2
    0.3648              -30.53          32.72          32.21          63.06        -0.1814         -1.112         -130.6          47.39          42.66          86.82          157.2
    0.3909              -30.53          32.72          32.22          63.05         -0.185         -1.112         -130.5          47.38          42.69          86.83          157.2
     0.417              -30.54          32.71          32.23          63.04        -0.1889         -1.111         -130.5          47.37          42.72          86.84          157.1
     0.443              -30.55          32.71          32.24          63.02        -0.1931         -1.111         -130.4          47.36          42.75          86.85          157.1
    0.4691              -30.56          32.71          32.25          63.01        -0.1977          -1.11         -130.4          47.34          42.79          86.86          157.1
    0.4951              -30.57           32.7          32.26          62.99        -0.2028         -1.109         -130.3          47.33          42.82          86.87          157.0
    0.5212              -30.58           32.7          32.28          62.98        -0.2084         -1.108         -130.3          47.32          42.87          86.89          157.0
    0.5472              -30.59           32.7          32.29          62.96        -0.2145         -1.108         -130.2           47.3          42.91           86.9          156.9
    0.5733              -30.61          32.69          32.31          62.94        -0.2213         -1.107         -130.1          47.28          42.96          86.92          156.8
    0.5994              -30.62          32.69          32.33          62.92        -0.2288         -1.105         -130.0          47.26          43.02          86.94          156.8
    0.6254              -30.64          32.68          32.35          62.89        -0.2372         -1.104         -130.0          47.24          43.08          86.96          156.7
    0.6515              -30.66          32.68          32.38          62.86        -0.2465         -1.103         -129.9          47.22          43.15          86.98          156.6
    0.6775              -30.68          32.67          32.41          62.83        -0.2569         -1.101         -129.7          47.19          43.23          87.01          156.5
    0.7036               -30.7          32.66          32.44           62.8        -0.2687           -1.1         -129.6          47.16          43.31          87.04          156.4
    0.7297              -30.73          32.65          32.47          62.76        -0.2819         -1.098         -129.5          47.12          43.41          87.07          156.3
    0.7557              -30.76          32.64          32.51          62.71         -0.297         -1.096         -129.3          47.08          43.52          87.11          156.2
    0.7818               -30.8          32.63          32.55          62.66        -0.3142         -1.093         -129.1          47.04          43.65          87.15          156.0
    0.8078              -30.84          32.62          32.61           62.6        -0.3339          -1.09         -128.9          46.98           43.8           87.2          155.8
    0.8339              -30.88           32.6          32.67          62.54        -0.3567         -1.087         -128.6          46.92          43.97          87.26          155.6
      0.86              -30.94          32.59          32.73          62.46        -0.3831         -1.083         -128.4          46.85          44.16          87.33          155.4
     0.886               -31.0          32.57          32.82          62.36        -0.4141         -1.079         -128.0          46.77           44.4          87.41          155.1
    0.9121              -31.07          32.54          32.91          62.26        -0.4506         -1.073         -127.6          46.67          44.67           87.5          154.8
    0.9381              -31.16          32.51          33.02          62.13         -0.494         -1.067         -127.1          46.56          44.99          87.61          154.4
    0.9642              -31.27          32.48          33.16          61.97         -0.546         -1.059         -126.6          46.42          45.38          87.74          153.9
    0.9903               -31.4          32.44          33.32          61.79        -0.6089          -1.05         -125.9          46.25          45.84           87.9          153.3
     1.016              -31.55          32.39          33.52          61.56        -0.6858         -1.039         -125.0          46.05          46.42           88.1          152.6
     1.042              -31.74          32.33          33.77          61.27        -0.7806         -1.025         -124.0           45.8          47.12          88.34          151.8
     1.068              -31.99          32.25          34.08          60.92        -0.8989         -1.008         -122.7          45.48           48.0          88.64          150.7
     1.094              -32.29          32.15          34.47          60.48         -1.048        -0.9866         -121.1          45.09          49.11          89.02          149.4
     1.121              -32.67          32.03          34.96          59.92         -1.237        -0.9591         -119.0          44.59          50.52           89.5          147.6
     1.147              -33.17          31.87          35.59          59.19          -1.48        -0.9239         -116.3          43.94          52.32          90.12          145.4
     1.173               -33.8          31.67          36.41          58.27         -1.791        -0.8788         -112.9          43.12          54.64          90.91          142.6
     1.199              -34.61          31.41          37.44          57.09         -2.188        -0.8211         -108.6          42.07          57.59          91.92          139.0
     1.225              -35.62          31.08          38.75           55.6         -2.688        -0.7486         -103.1          40.74          61.31          93.19          134.5
     1.251              -36.86          30.69          40.33          53.79         -3.297        -0.6602         -96.41          39.13          65.84          94.73          129.0
     1.277               -38.3          30.23          42.17          51.69         -4.003        -0.5578         -88.68          37.25          71.09          96.53          122.6
     1.303              -39.85          29.73          44.17          49.41         -4.767        -0.4469          -80.3          35.23          76.77          98.47          115.7
     1.329              -41.41          29.23          46.16          47.14         -5.531         -0.336         -71.92           33.2          82.46          100.4          108.7
     1.355              -42.84          28.77           48.0          45.04         -6.237        -0.2336         -64.19          31.33           87.7          102.2          102.4
     1.381              -44.08          28.37          49.59          43.23         -6.846        -0.1452         -57.51          29.71          92.23          103.8          96.84
     1.407               -45.1          28.04          50.89          41.74         -7.346       -0.07269         -52.03          28.39          95.95          105.0          92.31
     1.433              -45.91          27.79          51.93          40.56         -7.743       -0.01502         -47.68          27.34          98.91          106.0          88.72
     1.459              -46.54          27.58          52.74          39.63         -8.054        0.03013         -44.27          26.51          101.2          106.8           85.9
     1.485              -47.03          27.42          53.37          38.91         -8.297        0.06531         -41.61          25.87          103.0          107.4           83.7
     1.511              -47.42           27.3          53.87          38.35         -8.486         0.0928         -39.53          25.36          104.4          107.9          81.99
     1.538              -47.72           27.2          54.26           37.9         -8.635         0.1144          -37.9          24.97          105.5          108.3          80.64
